# xmcd CD database file
#
# Track frame offsets:
#       150
#       14025
#       28302
#       39510
#       53025
#       73447
#       87147
#       106335
#       119945
#       130650
#
# Disc length: 1929 seconds
#
# Revision: 0
# Processed by: cddbd v1.4PL0 Copyright (c) Steve Scherf et al.
# Submitted via: jack 2.99.7
#
DISCID=9307870a
DTITLE=Roger Whittaker - The Country Collection
DYEAR=1900
DGENRE=
TTITLE0=Gentle On My Mind
TTITLE1=Make The World Go Away
TTITLE2=Blue Eyes Crying In The Rain
TTITLE3=Red River Valley
TTITLE4=Funny How Time Slips Away
TTITLE5=The Most Beautiful Girl
TTITLE6=For The Good Times
TTITLE7=Making Believe
TTITLE8=I Can't Help It (If I'm Still In Love With You)
TTITLE9=There Goes My Everything
EXTD=
EXTT0=
EXTT1=
EXTT2=
EXTT3=
EXTT4=
EXTT5=
EXTT6=
EXTT7=
EXTT8=
EXTT9=
PLAYORDER=
